<svg xmlns="http://www.w3.org/2000/svg" xmlns:xlink="http://www.w3.org/1999/xlink" width="48" height="48" version="1.1" viewBox="0 0 48 48"><g id="Page-1" fill="none" fill-rule="evenodd" stroke="none" stroke-width="1"><g id="bulb-copy" stroke="#2C3239" stroke-width="2"><path id="Rectangle-31" d="M20,37 L29,37 L29,44.1818182 C29,44.1818182 27.7142857,46 24.5,46 C21.2857143,46 20,44.1818182 20,44.1818182 L20,37 Z"/><path id="Line" stroke-linecap="round" stroke-linejoin="round" d="M19,40 L30,40"/><path id="Line-Copy" stroke-linecap="round" stroke-linejoin="round" d="M19,43 L30,43"/><path id="Oval-28" stroke-linejoin="round" d="M18,37 L31,37 C31,30 37,30 37,21 C37,14.5964406 31.4035594,9 24.5,9 C17.5964406,9 12,14.5964406 12,21 C12,30 18,30 18,37 Z"/><path id="Line-Copy-3" stroke-linecap="round" d="M15,3 L17,7"/><path id="Line-Copy-6" stroke-linecap="round" d="M8,8 L11,11"/><path id="Line-Copy-4" stroke-linecap="round" d="M4,15 L8,16"/><path id="Line-Copy-5" stroke-linecap="round" d="M41,15 L45,16" transform="translate(43.000000, 15.500000) scale(-1, 1) translate(-43.000000, -15.500000)"/><path id="Line-Copy-7" stroke-linecap="round" d="M40,8 L37,11"/><path id="Line-Copy-8" stroke-linecap="round" d="M33,3 L31,7"/><path id="Line-Copy-9" stroke-linecap="round" d="M24,1 L24,5"/><path id="Oval-38-Copy" stroke-linecap="round" d="M21.8759311,13.8252994 C19.3842299,14.7476129 17.4123055,16.7414182 16.5195651,19.2473081"/></g></g></svg>