<svg xmlns="http://www.w3.org/2000/svg" xmlns:xlink="http://www.w3.org/1999/xlink" width="48" height="48" version="1.1" viewBox="0 0 48 48"><g id="Page-1" fill="none" fill-rule="evenodd" stroke="none" stroke-width="1"><g id="thumb" stroke="#2C3239" stroke-linecap="round" stroke-width="2"><path id="Oval-47" fill="#FFF" d="M22.111427,47 C17.693149,47 14.111427,43.418278 14.111427,39"/><path id="Line-Copy-10" d="M43.1397473,40 L34.111427,40"/><path id="Line-Copy-11" d="M43.1397473,33 L34.111427,33"/><path id="Line-Copy-8" d="M43.1397473,26 L34.111427,26"/><path id="Line-Copy-9" d="M43,19 L30.5,19"/><path id="Oval-46-Copy-3" fill="#FFF" d="M38.111427,47 C40.320566,47 42.111427,45.4329966 42.111427,43.5 C42.111427,41.5670034 40.320566,40 38.111427,40"/><path id="Oval-46-Copy-4" fill="#FFF" d="M43.111427,40 C45.320566,40 47.111427,38.4329966 47.111427,36.5 C47.111427,34.5670034 45.320566,33 43.111427,33"/><path id="Oval-46-Copy-5" fill="#FFF" d="M43.111427,33 C45.320566,33 47.111427,31.4329966 47.111427,29.5 C47.111427,27.5670034 45.320566,26 43.111427,26"/><path id="Oval-46-Copy-6" fill="#FFF" d="M43.111427,26 C45.320566,26 47.111427,24.4329966 47.111427,22.5 C47.111427,20.5670034 45.320566,19 43.111427,19"/><path id="Line-Copy-12" d="M37.9999997,47 L22,47"/><path id="Path-131" d="M30.4999997,19.0000007 C30.4999997,19.0000007 32.9755649,13.8049788 33.9999997,11.5000004 C37.9999997,2.50000002 30.4999997,5.73626124e-08 28.4999997,2.99999995 C26.4999997,5.99999984 14.111427,23.8557556 14.111427,23.8557551"/><rect id="Rectangle-37" width="13" height="30" x="1" y="17"/></g></g></svg>